<svg width="40" height="40" viewBox="0 0 40 40" fill="none" xmlns="http://www.w3.org/2000/svg">
<path d="M23.3337 3.33331V9.99998C23.3337 10.884 23.6848 11.7319 24.31 12.357C24.9351 12.9821 25.7829 13.3333 26.667 13.3333H33.3337M16.667 15H13.3337M26.667 21.6666H13.3337M26.667 28.3333H13.3337M25.0003 3.33331H10.0003C9.11627 3.33331 8.26842 3.6845 7.6433 4.30962C7.01818 4.93474 6.66699 5.78259 6.66699 6.66665V33.3333C6.66699 34.2174 7.01818 35.0652 7.6433 35.6903C8.26842 36.3155 9.11627 36.6666 10.0003 36.6666H30.0003C30.8844 36.6666 31.7322 36.3155 32.3573 35.6903C32.9825 35.0652 33.3337 34.2174 33.3337 33.3333V11.6666L25.0003 3.33331Z" stroke="#FFA221" stroke-width="3" stroke-linecap="round" stroke-linejoin="round"/>
</svg>
